<svg xmlns="http://www.w3.org/2000/svg" xmlns:xlink="http://www.w3.org/1999/xlink" viewBox="0 0 782 415.99"><defs><style>.cls-1{fill:silver;}.cls-2{fill:#fff;}.cls-3{fill:#bfbfbf;}</style></defs><title>Asset 2</title><g id="Layer_2" data-name="Layer 2"><g id="Layer_1-2" data-name="Layer 1"><polygon class="cls-1" points="325.43 384.99 196.85 384.99 234.31 198.9 284.1 198.9 325.43 384.99"/><rect class="cls-2" x="16.5" y="16.5" width="498" height="264.83"/><path d="M498,33V264.82H33V33H498M519,0H12A12,12,0,0,0,0,12V285.82a12,12,0,0,0,12,12H519a12,12,0,0,0,12-12V12A12,12,0,0,0,519,0Z"/><image width="2846" height="1468" transform="translate(24.7 24.7) scale(0.17)" xlink:href="../../../../Desktop/desktop(backup)/work-related/amatis/Screen Shot 2017-06-23 at 5.49.47 PM.png"/><rect class="cls-2" x="430" y="76.35" width="244" height="324.65"/><path d="M662,88.34V389H442V88.34H662m12-24H430a12,12,0,0,0-12,12V401a12,12,0,0,0,12,12H674a12,12,0,0,0,12-12V76.34a12,12,0,0,0-12-12Z"/><image width="772" height="1030" transform="translate(432.27 79.23) scale(0.31)" xlink:href="../../../../Desktop/desktop(backup)/work-related/amatis/Screen Shot 2017-06-05 at 2.32.33 PM.png"/><circle class="cls-1" cx="559" cy="405.49" r="5.5"/><rect class="cls-2" x="637" y="136.99" width="133" height="267"/><path d="M758,149V392H649V149H758m12-24H637a12,12,0,0,0-12,12V404a12,12,0,0,0,12,12H770a12,12,0,0,0,12-12V137a12,12,0,0,0-12-12Z"/><image width="750" height="1334" transform="translate(634 144.99) scale(0.19)" xlink:href="../../../../Desktop/desktop(backup)/random(sort)/desktop-stuff-ORGANIZE/IMG_0913.jpg"/><circle class="cls-1" cx="703.59" cy="406.4" r="7.41"/><rect class="cls-3" x="678" y="134.99" width="43" height="3" rx="1.5" ry="1.5"/></g></g></svg>