<svg xmlns="http://www.w3.org/2000/svg" viewBox="0 0 328.5 328.5"><defs><style>.cls-1{fill:#fff;}</style></defs><title>Asset 2</title><g id="Layer_2" data-name="Layer 2"><g id="Layer_2-2" data-name="Layer 2"><path class="cls-1" d="M325,155.76,172.73,3.5a12,12,0,0,0-17,0L3.5,155.76a12,12,0,0,0,0,17L155.76,325a12,12,0,0,0,17,0L325,172.73A12,12,0,0,0,325,155.76ZM163.83,246.54,38.43,121.13l13.36-13.36,125.4,125.4ZM229.52,268,60.53,99,73.89,85.67l169,169Zm22.1-22.1-169-169L96,63.57l169,169Zm22.1-22.1L128.34,78.43,141.7,65.07,287.09,210.46Z"/></g></g></svg>